<svg xmlns="http://www.w3.org/2000/svg" width="240" height="240" viewBox="0 0 240 240" shape-rendering="crispEdges">
<g fill="#fdf5f0">
<rect x="0" y="0" width="48" height="8"/>
<rect x="0" y="8" width="40" height="8"/>
<rect x="232" y="8" width="8" height="8"/>
<rect x="0" y="16" width="32" height="8"/>
<rect x="224" y="16" width="16" height="8"/>
<rect x="0" y="24" width="24" height="8"/>
<rect x="216" y="24" width="24" height="8"/>
<rect x="0" y="32" width="16" height="8"/>
<rect x="208" y="32" width="32" height="8"/>
<rect x="0" y="40" width="8" height="8"/>
<rect x="200" y="40" width="40" height="8"/>
<rect x="192" y="48" width="48" height="8"/>
<rect x="184" y="56" width="48" height="8"/>
<rect x="176" y="64" width="48" height="8"/>
<rect x="168" y="72" width="48" height="8"/>
<rect x="160" y="80" width="48" height="8"/>
<rect x="152" y="88" width="48" height="8"/>
<rect x="144" y="96" width="48" height="8"/>
<rect x="136" y="104" width="48" height="8"/>
<rect x="128" y="112" width="48" height="8"/>
<rect x="120" y="120" width="48" height="8"/>
<rect x="112" y="128" width="48" height="8"/>
<rect x="104" y="136" width="48" height="8"/>
<rect x="96" y="144" width="48" height="8"/>
<rect x="88" y="152" width="48" height="8"/>
<rect x="80" y="160" width="48" height="8"/>
<rect x="72" y="168" width="48" height="8"/>
<rect x="64" y="176" width="48" height="8"/>
<rect x="56" y="184" width="48" height="8"/>
<rect x="48" y="192" width="48" height="8"/>
<rect x="40" y="200" width="48" height="8"/>
<rect x="32" y="208" width="48" height="8"/>
<rect x="24" y="216" width="48" height="8"/>
<rect x="16" y="224" width="48" height="8"/>
<rect x="8" y="232" width="48" height="8"/>
</g>
<g fill="#fefaeb">
<rect x="48" y="0" width="48" height="8"/>
<rect x="40" y="8" width="48" height="8"/>
<rect x="32" y="16" width="48" height="8"/>
<rect x="24" y="24" width="48" height="8"/>
<rect x="16" y="32" width="48" height="8"/>
<rect x="8" y="40" width="48" height="8"/>
<rect x="0" y="48" width="48" height="8"/>
<rect x="0" y="56" width="40" height="8"/>
<rect x="232" y="56" width="8" height="8"/>
<rect x="0" y="64" width="32" height="8"/>
<rect x="224" y="64" width="16" height="8"/>
<rect x="0" y="72" width="24" height="8"/>
<rect x="216" y="72" width="24" height="8"/>
<rect x="0" y="80" width="16" height="8"/>
<rect x="208" y="80" width="32" height="8"/>
<rect x="0" y="88" width="8" height="8"/>
<rect x="200" y="88" width="40" height="8"/>
<rect x="192" y="96" width="48" height="8"/>
<rect x="184" y="104" width="48" height="8"/>
<rect x="176" y="112" width="48" height="8"/>
<rect x="168" y="120" width="48" height="8"/>
<rect x="160" y="128" width="48" height="8"/>
<rect x="152" y="136" width="48" height="8"/>
<rect x="144" y="144" width="48" height="8"/>
<rect x="136" y="152" width="48" height="8"/>
<rect x="128" y="160" width="48" height="8"/>
<rect x="120" y="168" width="48" height="8"/>
<rect x="112" y="176" width="48" height="8"/>
<rect x="104" y="184" width="48" height="8"/>
<rect x="96" y="192" width="48" height="8"/>
<rect x="88" y="200" width="48" height="8"/>
<rect x="80" y="208" width="48" height="8"/>
<rect x="72" y="216" width="48" height="8"/>
<rect x="64" y="224" width="48" height="8"/>
<rect x="56" y="232" width="48" height="8"/>
</g>
<g fill="#f2fbf9">
<rect x="96" y="0" width="48" height="8"/>
<rect x="88" y="8" width="48" height="8"/>
<rect x="80" y="16" width="48" height="8"/>
<rect x="72" y="24" width="48" height="8"/>
<rect x="64" y="32" width="48" height="8"/>
<rect x="56" y="40" width="48" height="8"/>
<rect x="48" y="48" width="48" height="8"/>
<rect x="40" y="56" width="48" height="8"/>
<rect x="32" y="64" width="48" height="8"/>
<rect x="24" y="72" width="48" height="8"/>
<rect x="16" y="80" width="48" height="8"/>
<rect x="8" y="88" width="48" height="8"/>
<rect x="0" y="96" width="48" height="8"/>
<rect x="0" y="104" width="40" height="8"/>
<rect x="232" y="104" width="8" height="8"/>
<rect x="0" y="112" width="32" height="8"/>
<rect x="224" y="112" width="16" height="8"/>
<rect x="0" y="120" width="24" height="8"/>
<rect x="216" y="120" width="24" height="8"/>
<rect x="0" y="128" width="16" height="8"/>
<rect x="208" y="128" width="32" height="8"/>
<rect x="0" y="136" width="8" height="8"/>
<rect x="200" y="136" width="40" height="8"/>
<rect x="192" y="144" width="48" height="8"/>
<rect x="184" y="152" width="48" height="8"/>
<rect x="176" y="160" width="48" height="8"/>
<rect x="168" y="168" width="48" height="8"/>
<rect x="160" y="176" width="48" height="8"/>
<rect x="152" y="184" width="48" height="8"/>
<rect x="144" y="192" width="48" height="8"/>
<rect x="136" y="200" width="48" height="8"/>
<rect x="128" y="208" width="48" height="8"/>
<rect x="120" y="216" width="48" height="8"/>
<rect x="112" y="224" width="48" height="8"/>
<rect x="104" y="232" width="48" height="8"/>
</g>
<g fill="#f8f4fe">
<rect x="144" y="0" width="48" height="8"/>
<rect x="136" y="8" width="48" height="8"/>
<rect x="128" y="16" width="48" height="8"/>
<rect x="120" y="24" width="48" height="8"/>
<rect x="112" y="32" width="48" height="8"/>
<rect x="104" y="40" width="48" height="8"/>
<rect x="96" y="48" width="48" height="8"/>
<rect x="88" y="56" width="48" height="8"/>
<rect x="80" y="64" width="48" height="8"/>
<rect x="72" y="72" width="48" height="8"/>
<rect x="64" y="80" width="48" height="8"/>
<rect x="56" y="88" width="48" height="8"/>
<rect x="48" y="96" width="48" height="8"/>
<rect x="40" y="104" width="48" height="8"/>
<rect x="32" y="112" width="48" height="8"/>
<rect x="24" y="120" width="48" height="8"/>
<rect x="16" y="128" width="48" height="8"/>
<rect x="8" y="136" width="48" height="8"/>
<rect x="0" y="144" width="48" height="8"/>
<rect x="0" y="152" width="40" height="8"/>
<rect x="232" y="152" width="8" height="8"/>
<rect x="0" y="160" width="32" height="8"/>
<rect x="224" y="160" width="16" height="8"/>
<rect x="0" y="168" width="24" height="8"/>
<rect x="216" y="168" width="24" height="8"/>
<rect x="0" y="176" width="16" height="8"/>
<rect x="208" y="176" width="32" height="8"/>
<rect x="0" y="184" width="8" height="8"/>
<rect x="200" y="184" width="40" height="8"/>
<rect x="192" y="192" width="48" height="8"/>
<rect x="184" y="200" width="48" height="8"/>
<rect x="176" y="208" width="48" height="8"/>
<rect x="168" y="216" width="48" height="8"/>
<rect x="160" y="224" width="48" height="8"/>
<rect x="152" y="232" width="48" height="8"/>
</g>
<g fill="#fdf4f8">
<rect x="192" y="0" width="48" height="8"/>
<rect x="184" y="8" width="48" height="8"/>
<rect x="176" y="16" width="48" height="8"/>
<rect x="168" y="24" width="48" height="8"/>
<rect x="160" y="32" width="48" height="8"/>
<rect x="152" y="40" width="48" height="8"/>
<rect x="144" y="48" width="48" height="8"/>
<rect x="136" y="56" width="48" height="8"/>
<rect x="128" y="64" width="48" height="8"/>
<rect x="120" y="72" width="48" height="8"/>
<rect x="112" y="80" width="48" height="8"/>
<rect x="104" y="88" width="48" height="8"/>
<rect x="96" y="96" width="48" height="8"/>
<rect x="88" y="104" width="48" height="8"/>
<rect x="80" y="112" width="48" height="8"/>
<rect x="72" y="120" width="48" height="8"/>
<rect x="64" y="128" width="48" height="8"/>
<rect x="56" y="136" width="48" height="8"/>
<rect x="48" y="144" width="48" height="8"/>
<rect x="40" y="152" width="48" height="8"/>
<rect x="32" y="160" width="48" height="8"/>
<rect x="24" y="168" width="48" height="8"/>
<rect x="16" y="176" width="48" height="8"/>
<rect x="8" y="184" width="48" height="8"/>
<rect x="0" y="192" width="48" height="8"/>
<rect x="0" y="200" width="40" height="8"/>
<rect x="232" y="200" width="8" height="8"/>
<rect x="0" y="208" width="32" height="8"/>
<rect x="224" y="208" width="16" height="8"/>
<rect x="0" y="216" width="24" height="8"/>
<rect x="216" y="216" width="24" height="8"/>
<rect x="0" y="224" width="16" height="8"/>
<rect x="208" y="224" width="32" height="8"/>
<rect x="0" y="232" width="8" height="8"/>
<rect x="200" y="232" width="40" height="8"/>
</g>
</svg>